<?xml version="1.0" encoding="utf-8"?>
<!-- Generator: Adobe Illustrator 24.3.0, SVG Export Plug-In . SVG Version: 6.00 Build 0)  -->
<svg version="1.0" id="Layer_1" xmlns="http://www.w3.org/2000/svg" xmlns:xlink="http://www.w3.org/1999/xlink" x="0px" y="0px"
	 viewBox="0 0 640 480" style="enable-background:new 0 0 640 480;" xml:space="preserve">
<style type="text/css">
	.st0{fill:#E40000;}
	.st1{fill:#FFFFFF;}
	.st2{fill:#050703;}
	.st3{fill:none;}
</style>
<g>
	<path class="st0" d="M299.8,21.8c9.8-2.1,20-2.3,30-1.3c6.2,0.4,12.3,1.5,18.4,2.9c16.8,3.8,32.3,13.1,44.1,25.6
		c9.3,10.2,16,22.6,20.7,35.4c4.5,11.8,7.1,24.2,8.8,36.6c0.8,6.8,1.6,13.7,1.8,20.6c0.7,8.7,0.5,17.5,0.1,26.2
		c-0.3,10.6-1.4,21.2-2.9,31.8c-3.4,20.7-8.2,41.1-14.8,61c-2.6,7.7-5.2,15.4-8.5,22.9c-0.8,1.8-1.8,3.6-1.7,5.7
		c0,6.7-0.4,13.4-0.2,20.1c0.2,4.9,0.2,9.9,1.9,14.6c4.1,9.7,10.2,18.4,17.4,26.1c7.5,8.1,16.6,14.7,26.5,19.6
		c10.1,5.2,21.3,8.2,32.6,9.6c3.2,0.5,6.3,1.1,9.5,1.8v4.5c-5.1-1.2-10.4-2-15.6-2.7c-5.5-0.9-10.9-2.3-16.2-4
		c-1,1.2-2.1,2.3-2.8,3.8c-0.9,1.8-1.2,3.7-1.5,5.6c6.6,3,13.8,4.6,20.8,6.5c5.1,1.5,10.2,2.8,15.3,4.3v1.5
		c-2.7,1.2-5.6,2.3-8.1,4.1c-6.3,4.8-11.2,11.2-15.4,17.7c7,4.8,13.8,9.6,20.9,14.2c0.9,0.5,1.5,1.5,2.1,2.3c-2.8-1-5.1-3-7.5-4.6
		c-5.1-3.4-10-6.8-14.9-10.2c-2.2-1.6-4.9-1.9-7.6-2.3c-6.6-0.8-13.6,0.5-19.5,3.8c-5.6,3.2-10.2,7.8-13.8,13.1
		c2.2,2.3,4.4,4.5,6.7,6.6c1.2,1.1,2.3,2.3,2.9,3.8c-2.7-1.6-4.7-4.2-7-6.4c-2-1.9-3.7-4.4-6.6-5.1c-9.8-2.9-20.3-2.9-30.3-1
		c-7.8,1.6-15.5,4.1-22.6,7.9c-3.3,1.5-6.4,3.3-9.5,5.3c1.1,3.5,2.8,6.8,3.9,10.2c-3.2-2.6-3.3-7.2-5.3-10.6
		c-1.2-0.7-2.5-0.9-3.8-1.2c-6.4-1.1-13-0.9-19.5-0.5c-11.3,1-22.5,2.8-33.5,5.6c-0.6,2.2-0.5,4.9-2.5,6.5c0.4-2.4,1-4.8,1.6-7.1
		c-11.7-5.3-24.5-7.6-37.3-8.2c-2.1-0.1-4.2,0-6.3,0c-1.7,3.5-3.6,6.9-5.5,10.3c-1.1,1.8-2.1,3.9-4,4.9c0.5-1.3,1.2-2.5,2-3.7
		c2.5-3.8,4.5-7.9,6.5-11.9c-2-1.5-4-2.9-6.2-4c-10.1-5.1-21.5-7.2-32.7-8.4c-1.8-0.2-3.7-0.4-5.6-0.2c-1,0-1.6,1-2.2,1.7
		c-5.4,6.8-11,13.5-16.5,20.2c-0.5,0.8-1.5,1.2-2.4,1.5c2-3.1,4.6-5.7,6.9-8.7c4.1-5.1,8.4-10,12.3-15.2c-4.3-3.9-8.9-7.4-13.7-10.5
		c-8.5-5.2-17.4-9.9-26.8-13.4c-1-0.4-2.1-0.8-3.2-1c-1,0.2-1.9,0.8-2.7,1.3v-0.8c0.5-0.6,1.1-1.2,1.6-1.8c-0.5-1.3-1.2-2.5-1.6-3.8
		v-2.1c0.9,1.9,1.9,3.8,2.7,5.7c8.8-5.1,17.8-9.9,26.8-14.8c-1.8-4.4-4.5-8.4-8.2-11.3c-1-0.8-2.1-1.8-3.5-1.5
		c-6.2,0.3-11.9,2.6-17.9,3.8v-4.5c3.3-1,6.6-1.8,9.9-2.7c3.2-0.9,6.5-0.8,9.8-1.4c7.4-1.3,14.5-3.9,21.4-7
		c8.8-4.1,17.1-9.2,24.4-15.7c4.8-4.6,9.8-9.5,11.7-16.1c1.5-6.5,2.3-13.1,3-19.6c1.3-11.4,2.1-22.8,3-34.3c0.4-3.1-1.3-5.8-2.4-8.6
		c-7.2-19.2-12.8-39-16.1-59.2c-2.9-15.2-5-30.5-5.9-45.9c-0.7-8.7-0.5-17.3-0.5-26c0.9-22.3,4.6-44.9,14.6-65
		c6.1-12.6,14.8-23.9,25.6-32.8C268,31.7,283.5,24.8,299.8,21.8"/>
	<g>
		<path class="st1" d="M400.6,143.4c-2.7,4.8-5.2,9.6-8.2,14.1c-7.9,12.5-17.6,23.9-28.6,33.7c-5.6,4.7-11.5,9.1-18.1,12.5
			c-1,0.5-2.1,1-2.8,2c-0.1,2,1.3,3.5,2.8,4.6c5.6,4.2,10.7,9,15.9,13.7c4.8,4.3,9.5,8.6,14.1,13.1c5.2-4.5,9.8-9.8,13.5-15.6
			c4.4-6.3,7.7-13.4,10.5-20.6c3.7-9.5,5.8-19.6,6.8-29.8c0.7-4.6,0.5-9.3,0.5-14c0-3.5,0-7-0.4-10.4c-0.5-4.2-0.7-8.4-1.6-12.6
			C403.6,137.2,402.2,140.3,400.6,143.4"/>
		<path class="st1" d="M232.5,145.5c-0.2,6.3-0.8,12.6-0.3,18.9c0.5,14.1,3.6,28.1,9.2,41.1c4.9,11.3,11.8,22,21,30.3
			c8.2-7.4,16.3-14.9,24.8-22.1c2.4-2.1,5.1-3.8,7.3-6.1c0.8-0.9,1.5-2.1,1-3.2c-1-0.9-2.3-1.5-3.4-2.1c-7.3-4.1-14.1-9.2-20.1-15
			c-16.3-15.3-28.8-34.3-37.7-54.7C233.4,136.7,233,141.1,232.5,145.5"/>
	</g>
	<path class="st2" d="M301.5,424.4c-2,9.3-3.6,18.7-6.2,27.8c9-1.8,17.9-3.7,27-4.6c9.6-1,19.5-1.7,29,0.5
		c-2.2-7.3-4.1-14.8-5.9-22.1c-3-1-6-2-9.1-2.5c-2.9-0.5-6-0.5-9-0.7c-3.9-0.3-7.8,0.1-11.7,0.2C310.9,423,306.2,424,301.5,424.4
		 M261.4,419.1c-3.2,8.2-6.5,16.4-10.4,24.4c14.8,0,29.7,2.3,43.2,8.3c1.2-3.2,1.7-6.6,2.5-9.9c1.2-5.9,2.7-11.8,3.4-17.8
		c-7.1-3.3-15.1-4.4-22.8-5C272,418.8,266.7,418.8,261.4,419.1 M367.5,416.2c-7.3,2.2-14.4,5.2-21,8.8c1.8,8,3.8,16,6.4,23.8
		c11.5-7.2,24.5-12.5,38-14.1c8.4-1.2,16.9-0.2,25,2c-5.6-5.7-11-11.5-16.6-17.3c-1.8-1.7-3.2-4.1-5.9-4.6
		C384.9,412.7,375.9,413.8,367.5,416.2 M205,430.5c6.9,0.1,13.7,1.1,20.4,2.5c8.7,1.8,17.3,4.9,24.5,10.1
		c3.9-8.1,7.4-16.5,10.6-24.9c-2.4-1.9-5.1-3.5-8-4.6c-9.5-3.7-19.6-5.3-29.7-6C217,415.4,210.9,422.9,205,430.5 M416.1,404.8
		c-7,2.4-13.3,6.3-18.8,11c7,7.4,14,14.6,21.1,21.9c0.8-0.2,1.2-1.1,1.8-1.7c4.6-6.3,11.1-11.3,18.5-13.9c5.6-1.9,11.5-1.9,17.3-1
		c-7.7-4.9-15.1-10.4-22.3-16c-0.9-0.6-1.8-1.4-2.8-1.6C425.9,402.8,420.9,403.3,416.1,404.8 M305.4,400.1
		c-0.9,7.8-2.3,15.5-3.8,23.2c11.7-1.6,23.6-2.7,35.3-0.9c2.8,0.4,5.5,1.3,8.2,2.1c-1.5-7.4-3.2-14.8-4.3-22.4
		c-0.2-0.9-0.2-1.8-0.7-2.5c-1-0.5-2.2-0.9-3.3-1.1c-5.4-1.2-11.1-1.3-16.6-0.7C315.2,398.2,310.2,399,305.4,400.1 M270.3,393.6
		c-2.7,8.1-5.5,16.2-8.5,24.2c13-0.5,26.4,0.1,38.6,5.1c0.7-3,1.2-6.1,1.7-9.1c0.7-4.4,1.6-8.8,2-13.2c-2-2.2-4.8-3.4-7.4-4.5
		C288.2,393.3,279.2,393,270.3,393.6 M184.6,392c-8,4.5-16.2,8.5-24,13.4c5.1,2,10.2,4,15.1,6.5c10.1,4.9,19.6,10.9,28,18.4
		c6-7.6,12.1-15.1,17.8-23c-1.3-2.1-2.6-4.3-4.6-6c-5.9-5.2-13.5-7.7-20.9-9.6c-2.6-0.5-5.1-1.3-7.8-1.4
		C187,390.7,185.8,391.3,184.6,392 M438.6,393.7c-2.6,2.6-4.5,5.8-6.3,9c8.6,6.7,17.4,13.1,26.5,19c3.9-5.5,7.8-11,12.9-15.5
		c3-2.7,6.5-5.1,10.4-6.3c-7.1-2-14.1-4-21.2-5.9c-4.3-1.1-8.6-2.4-12.7-4.1c-0.7-0.3-1.5-0.6-2.3-0.7
		C443,389.6,440.6,391.6,438.6,393.7 M355.3,391.6c-4.4,1.9-8.7,4.1-12.6,7.1c-0.5,0.5-1.5,0.9-1.2,1.8c1.2,7.9,2.9,15.6,4.6,23.4
		c10.8-5.6,22.4-10.4,34.7-11.2c4.2-0.4,8.5,0.1,12.6,0.9c-6.5-7.4-13.3-14.5-19.5-22.2c-0.7-0.8-1.5-1.7-2.6-1.8
		C366,388.4,360.4,389.6,355.3,391.6 M223.6,406.4c8.1,0.9,16.2,1.9,23.9,4.3c4.8,1.3,9.4,3.4,13.4,6.4c2.3-5.4,4.1-11,6-16.6
		c0.7-2.3,1.6-4.4,2.1-6.7c-0.5-1.7-1.8-3-3.1-4.1c-3.7-3.2-8.4-4.7-13.1-6c-3.8-1.1-7.7-1.8-11.7-2.4
		C235.6,389.9,229.7,398.2,223.6,406.4 M373.7,389.3c6.6,8.2,13.8,15.9,20.9,23.6c0.7,0.6,1.3,1.6,2.3,1.6c1.8-1.1,3.4-2.6,5.2-3.8
		c5.7-3.8,12-7,18.8-8.2c2.9-0.5,5.7-0.4,8.6-0.4c-9.4-7.3-18.8-14.5-27.5-22.6c-1.2-1.1-2.9-0.9-4.5-0.9
		C388.7,379.3,380.6,383.9,373.7,389.3 M208.1,380.4c-5.9,3.2-12.2,5.6-18.1,8.8c8.8,1.8,17.8,4.1,25.2,9.3c2.9,2,5.2,4.8,7,7.7
		c6.2-8.2,12.2-16.5,17.7-25.2c-1.4-1.5-2.7-3.2-4.5-4.3c-4.9-3-10.8-4-16.5-4.5C215.6,375.4,212,378.2,208.1,380.4 M316.7,371
		c-3.5,0.5-7,1.3-10.4,2.3c-0.2,8.5,0.3,17.1-0.6,25.6c7.1-1.4,14.4-2.5,21.7-2.3c4.3-0.1,8.5,0.5,12.6,1.8c-1-8.5-1.2-17-1.6-25.5
		c-3.5-1.3-7.3-2.2-11-2.2C323.8,370.6,320.2,370.5,316.7,371 M407,371.6c-2,1.8-3.4,4-4.9,6.2c5.7,5.8,12.2,10.8,18.5,15.9
		c3.5,2.9,7.2,5.4,10.7,8.3c2.3-3.3,4.3-6.8,7.1-9.5c1.6-1.8,3.8-3,5.8-4.3c-9.5-4.9-18.3-11.4-25.4-19.5c-0.7-0.7-1.3-1.7-2.4-1.8
		C412.8,367,409.6,369.1,407,371.6 M356.2,365.5c-5.9,1.5-11.4,4.1-16.5,7.3c0.2,8.6,0.5,17.1,1.5,25.7c3.5-2.5,7.1-4.8,11-6.6
		c6-2.9,12.9-4.8,19.6-3.5c-3.7-7.3-4.8-15.4-6.3-23.3C362.3,364.7,359.2,364.5,356.2,365.5 M276.5,365.6
		c-0.3,6.5-1.2,13.1-3.2,19.3c-0.9,2.4-1.6,4.9-2.5,7.4c7.4-0.2,14.9-0.2,22.1,1.5c4.1,0.8,8.2,2.6,11.6,5.1
		c0.3-3.2,0.8-6.3,0.7-9.6c-0.1-5.6,0-11.1,0-16.7c-4.7-3.6-10.2-6.4-16-7.3C284.9,364.9,280.7,364.7,276.5,365.6 M177.4,376.6
		c2.4,2.1,4.9,4.3,6.6,7c1.2,1.6,1.9,3.4,2.8,5.1c0.7,0.9,1.8,0,2.6-0.3c5.2-2.9,10.8-5.2,16.2-7.8c4.3-2.1,8.1-4.9,11.7-8.1
		c-1.5-3.5-4.5-6-7.3-8.5C199.6,369.5,188.9,374.6,177.4,376.6 M417.8,366c7.9,9.1,17.5,16.7,28.4,21.8c0.7-3.4,1.7-6.8,4.3-9.3
		c-10.4-3.8-20.1-9.4-28.9-16.1C420.2,363.5,419,364.7,417.8,366 M248.6,366.3c-1.7,4.9-4.1,9.5-6.9,13.9c4.9,0.8,9.8,1.8,14.5,3.4
		c5.1,1.6,10.2,4.1,13.4,8.7c1.2-3.8,2.7-7.5,3.7-11.3c1.2-4.9,2-9.9,2-14.9c-0.7-1.6-2.1-2.9-3.3-4.1c-5.4-5.1-12.8-7.3-20-8
		C251,358.1,250.2,362.3,248.6,366.3 M379.2,354.3c-4.1,2.2-7.7,5.3-11.2,8.4c-0.5,0.5-1.2,1-1.5,1.8c0.1,2,0.6,3.9,1,5.9
		c1.3,6.2,2.3,12.6,5.7,18.1c7.7-5.9,16.7-11,26.7-11c-2-2.4-4.1-4.5-5.8-7.1c-2.7-4.5-4.8-9.4-6-14.5c-0.3-1.1-0.5-2.3-1.2-3.3
		C384.1,352,381.5,353.1,379.2,354.3 M306.5,348.9c-0.1,1.4-0.2,2.9-0.2,4.3c0.1,6.3-0.1,12.6,0.1,18.8c10.4-2.9,21.7-4.3,32.1-0.5
		c0-7.4-0.4-14.9-0.6-22.3c-6.5,1.6-13.2,2.5-19.8,1.8C314.1,350.4,310.2,350,306.5,348.9 M210.8,363.3c2.8,2.4,5.4,5.1,7.3,8.2
		c4.8-4.8,8.9-10.5,11.5-16.8c1.3-3.2,2.3-6.5,3-9.8C226.7,352.3,219,358.4,210.8,363.3 M276.4,342.5c0.4,7.3,0.5,14.5,0.1,21.8
		c7-1.2,14.2-0.4,20.7,2.4c2.9,1.2,5.5,2.9,8.1,4.7c0.2-7.3,0.2-14.7,0.1-22.1c-1.9-1-3.8-1.9-5.8-2.6c-2.3-0.9-4.5-2.1-6.9-2.7
		C287.3,342.6,281.8,342.2,276.4,342.5 M402,341.4c1.4,3.3,3.4,6.3,5.1,9.5c2.8,5.1,6.3,9.7,9.9,14.2c1.2-1.2,2.4-2.4,3.7-3.5
		c-5.6-4.4-10.4-9.6-14.8-15C404.5,344.9,403.4,343.1,402,341.4 M348.3,345.2c-3,1.5-6.2,2.7-9.4,4c0.5,7.3,0.2,14.5,0.5,21.8
		c0.1,0,0.4,0.1,0.6,0.1c1.5-0.6,2.9-1.6,4.5-2.3c4.8-2.4,9.9-4.3,15.2-5.1c1.8-0.3,3.7-0.1,5.5,0.2c-1-7.5-2-15-2.7-22.6
		C357.6,341.4,352.8,343.3,348.3,345.2 M388,351.6c1.5,5.4,2.9,10.8,5.7,15.7c1.8,3.7,4.8,6.7,7.5,9.8c1.1-1.4,2.1-2.8,3.2-4.1
		c3-3.6,7.1-6.5,11.8-7.2c-6.5-7.6-11.7-16.4-15.9-25.6C394.7,342,391,346.9,388,351.6 M233.7,345.3c-2.1,9.8-6.8,18.8-13.8,26
		c5.6,0.4,11.4,1.6,16.2,4.7c1.7,1.1,3,2.7,4.4,4.1c3-4.8,5.7-9.7,7.4-15.1c1.1-3.5,2.3-7.1,2.6-10.7c-0.5-2.6-1.6-4.9-2.8-7.2
		c-2.3-4.3-6-8.2-10.9-9.3C235.6,340.3,234.1,342.6,233.7,345.3 M354.6,341.5c2.6-0.7,5.1-1.3,7.8-1.4c-0.2-1.3-0.3-2.7-0.5-4
		C359.6,338,357.1,339.8,354.6,341.5 M275.7,331.9c0.2,3.2,0.5,6.3,0.6,9.5c4.5-0.1,9-0.1,13.4,0.7
		C284.6,339.3,280.1,335.6,275.7,331.9 M254.1,324.8c-0.1,4.5,0,8.9-0.4,13.4c-0.2,4.9-1,9.7-1.5,14.5c6.4,0.7,12.8,2.6,18.1,6.3
		c1.9,1.3,3.5,3.1,5.1,4.8c0.5-6.3,0.3-12.7,0-19.1c-0.1-0.7-0.1-1.5-0.5-2.1c-1.6-2.9-3.2-5.9-5.4-8.5
		C265.8,329.4,260.3,325.8,254.1,324.8 M378.3,325.7c-5.7,2.6-10.1,7.5-13.3,12.7c-0.7,1.1-1.5,2.3-1.3,3.7c0.6,7,1.5,13.8,2.5,20.7
		c2.6-2.1,5-4.6,7.8-6.5c3.8-2.7,8-5.4,12.8-5.4c-1.8-8.8-2.6-17.8-2.8-26.7C382,324.5,380.1,324.8,378.3,325.7 M296.9,325.1
		c-2.2,0.5-4.5,1-6.5,2.1c-1.2,2.6-2.1,5.4-3.4,8c2.4,1.5,4.8,2.9,7.3,4.3c7.8,4.1,16.5,6.4,25.3,7.1c9.8,0.5,19.8-1.5,28.4-6.3
		c3.2-1.8,6.3-3.7,9.1-6c-0.9-1.6-1.6-3.4-2.9-4.7c-4.1-1.5-8.5-2.3-12.7-3.2C326.8,323.7,311.6,321.8,296.9,325.1 M385.2,322.7
		c-0.4,3.5,0,7,0.2,10.5c0.4,5.6,1.2,11.1,2.1,16.6c3.3-4.3,6.8-8.8,12.1-10.7c-1.5-4.3-4.1-8-5.8-12.1c-1.4-2.8-1.9-5.9-2.3-8.9
		C389,318.8,386.7,320.5,385.2,322.7 M377.9,318.5c-4.3,6-9.1,11.7-14.7,16.5c0.1,1.3,0.1,2.6,0.1,3.8c2-2.6,3.7-5.4,5.9-7.8
		c2.7-2.8,5.9-5.3,9.5-6.7c1.6-0.6,3.5-0.9,5.1-1.6c0.2-1,0.1-2,0.1-2.9c-0.1-3.5,0-7,0-10.5C382.2,312.5,380.1,315.6,377.9,318.5
		 M241.4,309.2c-0.1,4.3-1,8.6-1.4,12.9c-0.7,4.8-1.3,9.8-2.8,14.4c2.1,0.9,4.3,1.7,6.1,3.2c3.8,3.2,6.1,7.7,7.7,12.3
		c1.4-8.6,2-17.4,2-26.1c0.1-2.6-1.5-4.9-2.7-7.1C248.1,315,245,311.8,241.4,309.2 M253,303.6c0.7,4.1,0.6,8.2,1,12.3
		c0.2,2.6,0.1,5.1,0.2,7.6c6.6,1.2,12.7,5.1,16.7,10.4c1.6,2,2.9,4.3,4.3,6.5c-0.1-3-0.3-6-0.6-9c0-0.7-0.5-1.2-1-1.7
		C265.5,322,259,312.9,253,303.6 M386.6,305.1c-0.6,1.2-1.5,2.3-1.5,3.7c-0.1,4-0.3,8.1-0.1,12.1c2-1.8,4.1-3.4,6.7-4.3
		c-0.2-2.5-1.2-4.9-0.7-7.5c0.2-4,0.1-8.1,0.1-12.1C389.7,299.6,388.3,302.4,386.6,305.1 M303,300c-1.4,0.4-2.8,0.7-4.1,1.3
		c-0.5,0.5-0.5,1.2-0.8,1.8c-2.1,7.5-4.6,15-7.1,22.4c14.8-4.9,30.9-3.8,46.1-1.1c5.7,0.9,11.3,2.4,16.9,3.7c-1.9-3-3.2-6.2-4.8-9.4
		c-3-6.1-5.7-12.4-8.2-18.7c-2.2-0.9-4.4-1.6-6.7-2C323.8,296.2,313.2,297.3,303,300 M261.8,293.2c-1.6,2.9-3.1,5.8-4.6,8.7
		c2.5,4.1,5.3,8.2,8.2,12c6,7.7,12.7,15,20.7,20.6c1.2-2.7,2.7-5.5,3.3-8.5c-1.9-4.8-4.6-9.3-7.4-13.7
		C276.6,304.7,270,297.7,261.8,293.2 M372.2,301.7c-5.7,5.6-10.9,11.9-14.3,19.2c-1.2,2.4-2,5-2.9,7.5c1,1.8,2,3.7,3,5.4
		c4.5-4,9-8.1,12.6-12.9c6.6-8,12-16.9,16.8-26c-0.7-1.2-1.5-2.3-2.3-3.4C380.5,294.2,376.2,297.9,372.2,301.7 M243.5,285.7
		c-0.5,7.4-1.1,14.9-1.8,22.3c2.7,1.9,5.2,4.1,7.3,6.8c1.6,1.9,2.7,4.1,4,6.2c-0.2-4.6-0.2-9.3-0.7-13.9c-0.3-2.6-0.1-5.4-1.6-7.7
		C248,294.9,245.8,290.3,243.5,285.7 M262.4,292.1c9.6,5.6,17.3,14.1,23,23.6c1.8,2.9,3.4,5.9,4.7,9c2.8-7.3,4.9-14.8,7.2-22.2
		c0.1-0.8,0.8-1.8,0.1-2.6c-5.2-6.3-11.2-12.1-18-16.7c-2.9-1.9-6-3.5-9.3-4.6C267.2,283.1,264.9,287.7,262.4,292.1 M356,283.8
		c-5.9,3.9-11.4,9.1-13.5,16c-0.3,0.9,0.2,1.8,0.5,2.6c3.5,8.2,7,16.4,11.2,24.2c1.4-4,3.1-7.9,5.4-11.5c6.2-10.1,15.1-18.4,24.9-25
		c-3.2-5.1-6.6-10-9.9-14.9C368.1,277.4,361.8,280.2,356,283.8 M307.1,267.7c-2.4,10.9-5,21.7-8.1,32.4c5.3-1.5,10.6-2.9,16.1-3.5
		c8.4-1,17.1-0.5,25.3,2c-3.8-9.7-7-19.6-9.8-29.6c-0.3-0.7-0.4-1.8-1.2-2.1c-3.1-1.6-6.8-1.8-10.2-1.6
		C315,265.3,311,266.3,307.1,267.7 M238.3,260.8c4.7,13.8,10.6,27.3,18.1,40c1.6-2.7,3.2-5.4,4.5-8.3c-0.2-1-0.8-2-1.3-2.9
		c-3.2-5.5-6.4-10.9-10.1-16.1C246.3,268.9,242.8,264.3,238.3,260.8 M281.7,260.8c-1.3,0.2-2,1.5-2.6,2.5c-2.9,4.8-5.7,9.6-8.5,14.4
		c11,4.3,19.9,12.6,27.4,21.5c2.9-9.5,5.1-19.2,7.3-28.8c0.1-0.7,0.5-1.5,0.2-2.3c-1.5-4.3-5.3-7.7-9.8-8.5
		C291.1,258.8,286.3,259.4,281.7,260.8 M393.6,266.9c-3.7,6.5-5.8,13.8-7.1,21.2c-0.1,0.9-0.4,1.8-0.3,2.8c0.4,1,1,1.8,1.6,2.7
		c6.1-12,11-24.5,14.8-37.4C398.8,258.9,395.9,262.7,393.6,266.9 M342.3,260.7c-3.5,2.6-6.7,5.4-9.4,8.7c-0.5-0.4-1-0.8-1.6-1.2
		c3.2,10.2,6.3,20.6,10.3,30.6c2-4.9,5.3-9.3,9.4-12.6c6.6-5.6,14.7-9,22.8-11.8c-3.5-4.9-6.8-9.8-10.3-14.6c-1-1.3-1.8-2.7-3-3.7
		c-1.9-0.7-3.9-0.5-5.9-0.4C350.2,256.1,346,258.2,342.3,260.7 M388.7,253.2c-5.1,3.9-9.6,9-11.3,15.3c-0.7,2.3-0.4,4.8-1.5,7
		c3,4.6,6.1,9,9.1,13.6c0.7-2.1,1-4.3,1.5-6.5c1.9-7.6,4.8-15.2,9.5-21.5c1.6-2.1,3.5-3.8,5.3-5.6c-2.3-2-4.4-4.1-6.8-6
		C392.4,250.2,390.6,251.8,388.7,253.2 M237.9,259.1c6,4.2,10.2,10.3,14.3,16.3c3.4,5.1,6.5,10.2,9.5,15.6c2.7-4.2,4.9-8.8,7.6-13.1
		c-1.6-3-3.5-5.7-5.4-8.6c-2.7-4.4-5.9-8.5-9.1-12.6c-2.4-2.7-4.9-5.4-7.7-7.7C243.8,252.4,240.8,255.7,237.9,259.1 M247.7,248.3
		c1.1,0.9,2.1,1.8,3.2,2.7c7.4,7.6,13.2,16.7,18.8,25.6c3.4-5.2,6.3-10.6,9.6-15.9c-1.9-7.7-6.5-14.4-12-20c-2.1,1.6-4,3.6-6.6,4.3
		c-2.3-1-4-2.9-5.7-4.6C252.6,243.2,250,245.7,247.7,248.3 M377,246.6c-2.1-0.8-3.8-2.3-5.6-3.5c-4,3.5-6.8,7.9-9.9,12.1
		c3.4,4.5,6.6,9,9.8,13.6c1.3,1.9,2.6,3.8,4.1,5.6c0.4-3.2,0.8-6.5,2.2-9.5c3.2-7.2,9.5-12.3,16-16.3c-3.1-2.7-6-5.7-9.2-8.2
		C382.2,242.5,380,245.2,377,246.6 M313.4,238.9c-2,9.1-3.7,18.3-6,27.4c7.1-2,15.1-3.8,22.2-0.8c-1.9-7.1-3.7-14.2-5.2-21.4
		c-0.5-1.9-0.7-3.8-1.3-5.6C319.9,237.2,316.4,237.9,313.4,238.9 M299.1,233.6c-1.5,1.5-2.6,3.4-3.8,5.1
		c-4.8,6.8-9.5,13.7-13.9,20.8c5.5-1.3,11.5-2.4,16.9-0.4c3.5,1.3,6.2,4,7.8,7.2c2-7.7,3.5-15.5,5.2-23.2c0.3-1.9,0.9-3.7,0.9-5.7
		c-1.3-2.9-4.6-4.8-7.7-4.8C302.7,232.7,300.8,232.9,299.1,233.6 M247.8,231.9c0.2,4.8,0.9,9.6,0.2,14.3c2.1-2.1,4.2-4.3,6.2-6.5
		C252,237.2,249.7,234.6,247.8,231.9 M327.3,235.1c-0.9,1.5-2,2.9-2.7,4.5c1.5,8.5,3.7,16.8,5.9,25.1c0.2,1.4,1.3,2.3,2.3,3.2
		c4.6-5.1,9.9-9.6,16.3-12.1c3.3-1.4,7-1.6,10.5-1.5c-6.4-8.4-13-16.7-20-24.6c-0.7-0.8-1.4-1.6-2.3-2.2
		C333,228.3,329.8,231.7,327.3,235.1 M385.2,239.3c2.9,2.7,5.7,5.4,8.8,7.9c-1.3-6.8-0.4-13.7,0.7-20.4
		C391.8,231.1,388.7,235.4,385.2,239.3 M283.5,226.9c-5,4.5-10.1,9-15.2,13.3c5.4,5.4,9.9,12,11.8,19.5c3.8-5.8,7.6-11.7,11.6-17.4
		c1.8-2.6,3.7-5.2,5.4-7.9c0.5-0.6,0.1-1.4-0.1-2c-1.6-4.1-4.7-7.5-7.8-10.6C287.3,223.6,285.4,225.2,283.5,226.9 M339.2,227.7
		c7.7,8.4,14.7,17.4,21.6,26.5c2.9-4.2,6-8.4,9.8-11.9c-8.7-7.3-17-15.1-25.4-22.8C342.3,221.6,340.7,224.7,339.2,227.7
		 M313.5,237.5c1.5-0.3,3-0.7,4.5-0.9c1.6-0.2,3.2,0.2,4.8,0.4c-1.6-8.4-3-16.8-4.3-25.3C316.9,220.3,315.4,228.9,313.5,237.5
		 M300.2,231.9c2.6-0.2,5.3-0.6,7.8,0.4c1.9,0.7,3.3,2.2,4.7,3.6c1.9-8.7,3.4-17.5,4.9-26.4C311.5,216.6,305.9,224.3,300.2,231.9
		 M319.4,208.8c1.2,8.8,2.6,17.7,4.2,26.4c0.2,0.8,0.3,1.6,0.7,2.4c1.7-2.5,3.2-5.2,5.4-7.3c1.9-1.8,4.3-3,6.6-4.1
		C330.9,220.3,325.6,214.1,319.4,208.8 M225.6,212.2c1.8,11,4.6,21.9,7.5,32.6c1.3,4.5,2.7,8.8,4,13.2c2.7-2.9,5.2-5.9,8-8.8
		c0.6-0.8,1.6-1.5,1.6-2.5c0.4-3.8,0.2-7.7-0.1-11.6c-0.1-1.8-0.1-3.6-0.5-5.3c-0.8-1.6-2-3.1-3-4.7c-3.1-5.2-6-10.6-8.4-16.1
		C231.8,210.2,228.7,211.2,225.6,212.2 M404.2,208.1c-1.2,3.5-2.9,6.9-4.6,10.2c-1,2.1-2.6,4-3,6.3c-1.9,7.7-3.1,16-1,23.8
		c1.5,1.8,3.4,3.2,5.1,4.9c0.7,0.5,1.6,1.8,2.6,1c0.7-1.3,1-2.8,1.5-4.3c1.3-4.1,2.5-8.2,3.5-12.4c2.4-8.7,4.4-17.4,6-26.4
		C410.8,210.2,407.5,209,404.2,208.1 M307.6,196.3c0.1,3.8-0.8,7.6-2.9,10.7c-2.2,3.4-5.4,5.8-8.4,8.4c-2.1,1.8-4.1,3.9-6.3,5.7
		c3.4,3.4,6.3,7.2,8.2,11.6c6.4-8.5,12.7-17.1,19.6-25.3C314.3,203.8,310.9,200,307.6,196.3 M297.9,183.6c-1,3.7-3.2,7-6.1,9.5
		c3.1,2.3,6.2,4.5,9.5,6.5c1.8-1.6,3.7-3,5.1-5.1c-1.2-2.1-2.9-3.8-4.2-5.8c-1.3-1.7-2.3-3.6-3.8-5.2
		C298.2,183.6,298,183.6,297.9,183.6 M319.5,207c4.7,4.8,9.6,9.3,14,14.3c1.5,1.6,2.9,3.4,4.6,4.8c1,0,1.2-1.3,1.7-2
		c1-2.2,2.7-3.9,4.5-5.6c-2.6-2.3-5.1-4.7-7.7-7c-2.3-2-3.9-4.6-4.9-7.4c-1.3-3.1-1.1-6.6-0.8-9.9c1.9,2.2,3.8,4.3,6,6.2
		c2.8-1.7,5.6-3.5,8.3-5.4c-4.6-3.2-7.7-7.8-10.4-12.6C329.9,190.9,324.6,198.9,319.5,207 M324.6,177.3c-1.5,9-3.2,17.9-4.8,26.9
		c1-1.3,1.8-2.6,2.7-4c3.8-6,7.6-12.1,11.3-18.2c-1.5-0.2-3-0.5-4.4-1.2C327.6,180,326.2,178.5,324.6,177.3 M299.3,183.1
		c5.5,8,11.5,15.7,18.5,22.6c-2.2-9.6-3.8-19.2-6.2-28.7C308.4,180.3,304,182.6,299.3,183.1 M318.5,178.1c-1.9,0.2-3.8-0.2-5.6-0.7
		c2,8.9,3.7,17.9,5.8,26.7c1.8-9.3,3.4-18.7,5.1-27.9C322.1,177,320.4,178,318.5,178.1 M219.7,166.7c0.1,2.7,0.4,5.3,0.7,7.9
		c0.1,2.2,0.2,4.4,0.6,6.5c1.1,8.9,2.2,17.9,4,26.7c0.2,1,0.3,2.1,0.4,3.2c3-0.9,6.1-2,9.1-3c-5.4-13.3-8.7-27.5-9.3-41.8
		C223.4,166.4,221.5,166.5,219.7,166.7 M413.6,164.4c0,4.1-0.7,8.2-1,12.4c-1.5,10.4-4,20.6-7.9,30.3c3.2,1,6.5,2.1,9.8,3.1
		c0.3-1.9,0.6-3.7,1-5.6c1.7-8.6,2.6-17.3,3.2-26.1c0.1-4.7,1.1-9.3,0.7-14C417.5,164.4,415.5,164.4,413.6,164.4 M343.5,167.8
		c-2.5,4.6-5.5,9-8.1,13.6c0.5,1.7,1.6,3.2,2.6,4.7c1.8,2.7,3.9,5.4,6.5,7.4c0.6,0.3,1.4,1.2,2.1,0.5c4.9-3.4,9.4-7.4,13.9-11.3
		c3.3-3,6.6-6.1,9.6-9.5c-2.6-1.2-5.1-2.6-7.2-4.4c-4.9-4.1-8.7-9.4-11.7-14.9C348.9,158.7,346.2,163.2,343.5,167.8 M266.7,170.2
		c4.9,5.4,10.1,10.6,15.6,15.4c2.7,2.4,5.7,4.5,8.4,6.8c3.4-2.6,5.6-6.5,6.5-10.6c-4.6-6.7-8.7-13.7-12.6-20.9
		c-1.3-2.7-2.7-5.4-4.1-8C277.1,159.6,272.8,165.8,266.7,170.2 M331.3,142.9c-2,9.9-3.8,19.9-5.9,29.9c-0.1,0.9-0.4,1.8-0.4,2.7
		c2,3,5.6,5.6,9.3,5.1c5.7-8.7,10.7-17.9,15.7-27c-1.8-0.2-3.7-0.4-5.4-1C339.4,151.1,335,147.1,331.3,142.9 M304.3,141.8
		c-5,7.2-13.8,11.4-22.4,11c3.2,6.9,7.1,13.5,11,20.1c2,2.9,3.5,6.1,5.8,8.8c4.9,0.3,9.5-2.6,12.7-6.2c-2-10.9-4.3-21.7-6.5-32.5
		c0.1-0.4,0.4-0.7,0.8-0.7c0.2,0.7,0.4,1.4,0.6,2.1c2.1,10.5,4.2,21,6.3,31.5c1.9,0.6,3.8,1.3,5.9,1c2.1-0.4,4.2-1.2,5.6-2.9
		c0.6-1.8,0.7-3.7,1.2-5.6c1.8-8.8,3.4-17.6,5.1-26.4c-7.1,2.8-15.1,2.6-22.4,0.2C306.8,142,305.5,141.8,304.3,141.8 M400.4,143.5
		c-2.7,4.8-5.2,9.6-8.2,14.1c-7.9,12.5-17.6,23.9-28.6,33.7c-5.6,4.7-11.5,9.1-18.1,12.5c-1,0.5-2.1,1-2.8,2c-0.1,2,1.3,3.5,2.8,4.6
		c5.6,4.2,10.7,9,15.9,13.7c4.8,4.3,9.5,8.6,14.1,13.1c5.2-4.5,9.8-9.8,13.5-15.6c4.4-6.3,7.7-13.4,10.5-20.6
		c3.7-9.5,5.8-19.6,6.8-29.8c0.7-4.6,0.5-9.3,0.5-14c0-3.5,0-7-0.4-10.4c-0.5-4.2-0.7-8.4-1.6-12.6
		C403.4,137.3,402,140.4,400.4,143.5 M232.3,145.6c-0.2,6.3-0.8,12.6-0.3,18.9c0.5,14.1,3.6,28.1,9.2,41.1c4.9,11.3,11.8,22,21,30.3
		c8.2-7.4,16.3-14.9,24.8-22.1c2.4-2.1,5.1-3.8,7.3-6.1c0.8-0.9,1.5-2.1,1-3.2c-1-0.9-2.3-1.5-3.4-2.1c-7.3-4.1-14.1-9.2-20.1-15
		c-16.3-15.3-28.8-34.3-37.7-54.7C233.2,136.8,232.8,141.2,232.3,145.6 M266.6,119.9c-1.5,8.1-4,16.4-9.6,22.6
		c-1.9,2.2-4.4,3.7-6.9,5.1c2.1,2.9,3.8,6.2,6,9.1c3,4.4,6.3,8.7,9.9,12.6c6.2-4.5,10.7-10.8,13.9-17.6c-4.1-8.5-7.9-17.2-11-26
		C268.2,123.7,267.4,121.8,266.6,119.9 M359.8,138.1c-2.6,4.9-5.2,9.9-7.9,14.8c3.1,5.6,6.6,11,11.6,15c2.2,1.9,4.8,3.5,7.6,4.4
		c7-7.4,12.9-15.8,18.2-24.5c-0.1-0.9-0.9-1.3-1.3-2c-8.3-9.1-13.2-20.7-16.4-32.5C367.8,121.6,363.8,129.8,359.8,138.1 M223,107.6
		c-2.4,11-3.5,22.3-3.8,33.6c-0.4,8.1,0.1,16.2,0.3,24.4c1.8-0.2,3.7-0.4,5.6-0.5c-0.8-16.5,1.6-33,6.2-48.8c0.1-0.6,0.5-1.4-0.1-2
		C229.1,111.4,226.1,109.4,223,107.6 M407.1,115.9c2.2,7,3.8,14,4.8,21.2c0.8,3.7,0.9,7.6,1.3,11.3c0.6,4.8,0.4,9.7,0.5,14.6
		c2,0.2,3.9,0.4,5.8,0.3c0.1-5.3,0.1-10.6,0-15.9c-0.1-2.8,0.1-5.6-0.3-8.4c-0.5-3.4-0.4-6.8-0.9-10.2c-0.7-7.3-1.8-14.6-3.4-21.8
		C412,109.6,409.3,112.6,407.1,115.9 M290.2,98.4c-6,8.1-13.8,15.1-23.1,19c3.7,10.9,8,21.7,12.9,32c0.5,0.9,0.9,2.4,2.2,2.3
		c8.6,0.2,17.5-4.2,21.9-11.8c-0.1-2.4-0.9-4.8-1.2-7.1c-1.5-8.5-3.2-17-4.8-25.6c-0.9-5.3-1.9-10.6-2.9-15.9
		C293.5,93.7,292.1,96.2,290.2,98.4 M333.8,130.7c-0.7,3.5-1.3,7.1-2.2,10.6c1.8,2.5,3.8,4.8,6.3,6.6c3.6,2.9,8.2,4.8,12.8,4.6
		c1-1.3,1.7-2.9,2.5-4.4c6.3-11.7,12.1-23.7,17.5-35.9c-3.5-0.9-6.8-2.1-10-3.8c-8-4.1-14.2-11.1-18.1-19
		C339.5,103,336.7,116.8,333.8,130.7 M323.5,92.9c-9.2,1-18.5-0.4-27.4-2.7c2.9,16.2,6,32.4,9,48.6c0.1,0.5,0.3,1.1,0.6,1.6
		c2.1,1,4.5,1.5,6.7,2.1c6,1.1,12.4,1,17.9-1.7c0.6-1.2,0.8-2.7,1.1-4c3.2-16.1,6.6-32.1,10.1-48.1C335.9,91,329.7,92.2,323.5,92.9
		 M243.4,109.5c-2,3.1-4.1,6-6.6,8.7c2.8,7.8,5.8,15.6,9.8,22.9c1,1.8,2,3.5,3,5.4c4.9-2.1,8.6-6.3,11-11c2.3-4.2,3.5-8.9,4.6-13.6
		c0.3-1.9,1-3.8,0.2-5.7c-3.8-10.9-6.7-22.1-9.6-33.2C252.5,92.2,248.4,101.2,243.4,109.5 M372.9,110.2c-0.8,1.5-0.1,3,0.2,4.6
		c2.2,8.1,5.4,15.9,9.9,22.9c2,3.1,4.5,5.9,6.8,8.7c2.4-3.2,4-7,5.8-10.6c3.1-6.5,5.7-13.3,7.7-20.3c-5.4-5-10-11-13.2-17.7
		c-2.9-5.6-4.5-11.8-5.8-17.9C381.3,90.3,377,100.2,372.9,110.2 M391.1,54.4c-1.2,7.1-3,14.2-5.2,21.2c-0.2,0.7-0.5,1.4-0.4,2.1
		c1.5,13.8,8,27.2,18.3,36.7c0.5-1.6,0.9-3.2,1.3-4.8c0.7,1.6,1.2,3.3,1.6,5c2.4-3.1,4.9-6.2,8.1-8.7c-1.6-7.9-4.1-15.6-7-23.1
		C403.5,72.5,398.3,62.7,391.1,54.4 M230.3,83.7c-2.9,7.3-5.4,14.7-7,22.3c1.2,1.3,2.8,2,4.1,3c1.7,1.2,3,2.9,4.8,4.1
		c0.7-1.8,1.2-3.7,1.9-5.4c0.7,3.1,1.6,6.2,2.3,9.2c2.2-2.3,4.1-4.9,5.8-7.6c5.2-8.6,9.4-17.8,12.7-27.3c0.8-1.8-0.2-3.7-0.5-5.5
		c-1.7-7.8-3.1-15.7-4.5-23.6C241.4,61.8,235.1,72.5,230.3,83.7 M278.5,63.3c-6.3,7-13.4,13.5-21.8,18c2.4,10.7,5.4,21.2,8.8,31.7
		c0.4,1.2,0.7,2.3,1.2,3.4c3.2-1,6-2.9,8.8-4.8c8-5.7,14.5-13.5,19.4-22c-2.3-12.7-4.3-25.6-6.7-38.3
		C285,55.3,282.1,59.5,278.5,63.3 M351.1,51c-2.7,11.7-5.1,23.4-7.9,35c-0.2,0.7-0.2,1.3,0.2,2c5,11.4,15.6,20.5,27.9,22.9
		c4.5-10.5,8.8-21,12.3-31.9c-3.8-0.9-7.6-2.3-11-4.3C363.3,69.1,356.7,60.1,351.1,51 M289.2,50.3c2.1,12.2,4.2,24.4,6.3,36.7
		c0.2,0.7,0.2,1.4,0.6,2c1.8,0.7,3.7,1,5.6,1.5c11.3,2.4,23.4,2.3,34.5-1.1c1.8-0.5,3.6-1.1,5.2-2c1-1.8,1.2-3.8,1.6-5.7
		c2.3-10.3,4.6-20.6,6.8-30.9c-6.2,1.2-12.4,2.2-18.7,2.6C317.3,54.6,302.9,53.8,289.2,50.3 M355.8,30.2c-1.3,6.3-2.9,12.7-4.4,19
		c4.6,8.1,10.1,15.7,17.4,21.5c4.4,3.5,9.6,6.2,15.1,7c2.7-8,4.9-16.3,6.2-24.6C380.7,42.9,369,34.7,355.8,30.2 M250.9,52
		c1.6,9.4,3.3,18.8,5.4,28.1c3.4-1.7,6.5-3.8,9.4-6.2c8.1-6.5,15.1-14.4,21.1-22.9c0.5-0.8,1.2-1.6,0.9-2.6c-1-6-2-12.1-3-18.1
		C272.1,35.1,260.3,42.3,250.9,52 M306.9,25.1c-7.2,0.9-14.3,2.5-21.1,4.9c1.2,6.3,2,12.6,3.2,18.9c7.8,2.1,15.8,3.1,23.9,3.5
		c12.5,0.3,25.1-0.5,37.4-3.2c1.4-6.5,3.1-13,4.5-19.6c-6.5-2-13-3.5-19.7-4.3C325.7,24.5,316.3,23.9,306.9,25.1 M299.8,21.8
		c9.8-2.1,20-2.3,30-1.3c6.2,0.4,12.3,1.5,18.4,2.9c16.8,3.8,32.3,13.1,44.1,25.6c9.3,10.2,16,22.6,20.7,35.4
		c4.5,11.8,7.1,24.2,8.8,36.6c0.8,6.8,1.6,13.7,1.8,20.6c0.7,8.7,0.5,17.5,0.1,26.2c-0.3,10.6-1.4,21.2-2.9,31.8
		c-3.4,20.7-8.2,41.1-14.8,61c-2.6,7.7-5.2,15.4-8.5,22.9c-0.8,1.8-1.8,3.6-1.7,5.7c0,6.7-0.4,13.4-0.2,20.1
		c0.2,4.9,0.2,9.9,1.9,14.6c4.1,9.7,10.2,18.4,17.4,26.1c7.5,8.1,16.6,14.7,26.5,19.6c10.1,5.2,21.3,8.2,32.6,9.6
		c3.2,0.5,6.3,1.1,9.5,1.8v4.5c-5.1-1.2-10.4-2-15.6-2.7c-5.5-0.9-10.9-2.3-16.2-4c-1,1.2-2.1,2.3-2.8,3.8c-0.9,1.8-1.2,3.7-1.5,5.6
		c6.6,3,13.8,4.6,20.8,6.5c5.1,1.5,10.2,2.8,15.3,4.3v1.5c-2.7,1.2-5.6,2.3-8.1,4.1c-6.3,4.8-11.2,11.2-15.4,17.7
		c7,4.8,13.8,9.6,20.9,14.2c0.9,0.5,1.5,1.5,2.1,2.3c-2.8-1-5.1-3-7.5-4.6c-5.1-3.4-10-6.8-14.9-10.2c-2.2-1.6-4.9-1.9-7.6-2.3
		c-6.6-0.8-13.6,0.5-19.5,3.8c-5.6,3.2-10.2,7.8-13.8,13.1c2.2,2.3,4.4,4.5,6.7,6.6c1.2,1.1,2.3,2.3,2.9,3.8c-2.7-1.6-4.7-4.2-7-6.4
		c-2-1.9-3.7-4.4-6.6-5.1c-9.8-2.9-20.3-2.9-30.3-1c-7.8,1.6-15.5,4.1-22.6,7.9c-3.3,1.5-6.4,3.3-9.5,5.3c1.1,3.5,2.8,6.8,3.9,10.2
		c-3.2-2.6-3.3-7.2-5.3-10.6c-1.2-0.7-2.5-0.9-3.8-1.2c-6.4-1.1-13-0.9-19.5-0.5c-11.3,1-22.5,2.8-33.5,5.6
		c-0.6,2.2-0.5,4.9-2.5,6.5c0.4-2.4,1-4.8,1.6-7.1c-11.7-5.3-24.5-7.6-37.3-8.2c-2.1-0.1-4.2,0-6.3,0c-1.7,3.5-3.6,6.9-5.5,10.3
		c-1.1,1.8-2.1,3.9-4,4.9c0.5-1.3,1.2-2.5,2-3.7c2.5-3.8,4.5-7.9,6.5-11.9c-2-1.5-4-2.9-6.2-4c-10.1-5.1-21.5-7.2-32.7-8.4
		c-1.8-0.2-3.7-0.4-5.6-0.2c-1,0-1.6,1-2.2,1.7c-5.4,6.8-11,13.5-16.5,20.2c-0.5,0.8-1.5,1.2-2.4,1.5c2-3.1,4.6-5.7,6.9-8.7
		c4.1-5.1,8.4-10,12.3-15.2c-4.3-3.9-8.9-7.4-13.7-10.5c-8.5-5.2-17.4-9.9-26.8-13.4c-1-0.4-2.1-0.8-3.2-1c-1,0.2-1.9,0.8-2.7,1.3
		v-0.8c0.5-0.6,1.1-1.2,1.6-1.8c-0.5-1.3-1.2-2.5-1.6-3.8v-2.1c0.9,1.9,1.9,3.8,2.7,5.7c8.8-5.1,17.8-9.9,26.8-14.8
		c-1.8-4.4-4.5-8.4-8.2-11.3c-1-0.8-2.1-1.8-3.5-1.5c-6.2,0.3-11.9,2.6-17.9,3.8v-4.5c3.3-1,6.6-1.8,9.9-2.7
		c3.2-0.9,6.5-0.8,9.8-1.4c7.4-1.3,14.5-3.9,21.4-7c8.8-4.1,17.1-9.2,24.4-15.7c4.8-4.6,9.8-9.5,11.7-16.1c1.5-6.5,2.3-13.1,3-19.6
		c1.3-11.4,2.1-22.8,3-34.3c0.4-3.1-1.3-5.8-2.4-8.6c-7.2-19.2-12.8-39-16.1-59.2c-2.9-15.2-5-30.5-5.9-45.9
		c-0.7-8.7-0.5-17.3-0.5-26c0.9-22.3,4.6-44.9,14.6-65c6.1-12.6,14.8-23.9,25.6-32.8C268,31.7,283.5,24.8,299.8,21.8"/>
</g>
<rect x="128.8" y="0" class="st3" width="382.4" height="480"/>
</svg>
